<svg xmlns="http://www.w3.org/2000/svg" width="121" height="121" viewBox="0 0 121 121">
  <g id="Group_817" data-name="Group 817" transform="translate(-96 -962)">
    <circle id="Ellipse_14" data-name="Ellipse 14" cx="60.5" cy="60.5" r="60.5" transform="translate(96 962)" fill="#4dc86e"/>
    <circle id="Ellipse_15" data-name="Ellipse 15" cx="34" cy="34" r="34" transform="translate(130 996)" fill="#fff"/>
    <g id="settings" transform="translate(108.999 975)">
      <g id="Group_816" data-name="Group 816" transform="translate(0.001)">
        <g id="Group_815" data-name="Group 815" transform="translate(0)">
          <circle id="Ellipse_13" data-name="Ellipse 13" cx="8.949" cy="8.949" r="8.949" transform="translate(38.656 40.584)" fill="#005b31"/>
          <path id="Path_972" data-name="Path 972" d="M47.606,0A47.606,47.606,0,1,0,95.213,47.605,47.606,47.606,0,0,0,47.606,0ZM72.623,54.525l-6.762.435A18.909,18.909,0,0,1,64.354,58.6l4.471,5.09-7.06,7.059-5.088-4.472a18.918,18.918,0,0,1-3.644,1.5L52.6,74.55H42.612l-.436-6.763a18.934,18.934,0,0,1-3.643-1.5l-5.089,4.472-7.059-7.062L30.856,58.6A18.943,18.943,0,0,1,29.35,54.96l-6.762-.436V44.54L29.35,44.1a19,19,0,0,1,1.506-3.643l-4.471-5.088,7.06-7.061,5.088,4.471a18.93,18.93,0,0,1,3.645-1.506l.436-6.763H52.6l.437,6.763a18.929,18.929,0,0,1,3.644,1.506l5.089-4.471,7.059,7.061L64.355,40.46A19,19,0,0,1,65.861,44.1l6.762.436Z" transform="translate(-0.001)" fill="#005b31"/>
        </g>
      </g>
    </g>
  </g>
</svg>
