<svg xmlns="http://www.w3.org/2000/svg" xmlns:xlink="http://www.w3.org/1999/xlink" width="310.072" height="184.965" viewBox="0 0 310.072 184.965">
  <defs>
    <clipPath id="clip-path">
      <path id="Path_347" data-name="Path 347" d="M331.862,347.379c-79.2-4.61-142.723-88.4-100.577-137.035,32.687-37.717,76.271,17.182,116.92-10.477,62.538-42.552,163.856-50.288,177.266,3.353S494.461,340.674,461.354,345.7,331.862,347.379,331.862,347.379Z" transform="translate(-217.853 -165.452)" fill="none"/>
    </clipPath>
  </defs>
  <g id="Group_416" data-name="Group 416" transform="translate(-217.853 -165.452)">
    <path id="Path_341" data-name="Path 341" d="M331.862,347.379c-79.2-4.61-142.723-88.4-100.577-137.035,32.687-37.717,76.271,17.182,116.92-10.477,62.538-42.552,163.856-50.288,177.266,3.353S494.461,340.674,461.354,345.7,331.862,347.379,331.862,347.379Z" fill="#32ac63"/>
    <path id="Path_342" data-name="Path 342" d="M435.043,363.634c.838,20.116.629,31.011-6.705,39.393s-27.868,6.286-27.868,6.286-2.026,29.614-30.732,30.872-32.827-36.878-10.337-46.656c21.409-9.308,28.217-12.013,35.621-35.062,6.764-21.056,27.868-17.042,32.9-8.242S435.043,363.634,435.043,363.634Z" transform="translate(-92.914 -129.823)" fill="#014626"/>
    <path id="Path_343" data-name="Path 343" d="M644.513,791.845s13.55,2.654,14.248,2.514,15.506-6.705,17.042-5.727,10.477,4.749,12.432,5.588-1.118,1.117-2.654,1.117-10.337-3.632-11.315-2.933,7.683,2.1,7.683,2.654-23.189,5.867-24.585,5.867-12.153-.978-12.153-.978Z" transform="translate(-311.813 -455.362)" fill="#e38540"/>
    <path id="Path_344" data-name="Path 344" d="M602.737,525.923c7.3,1.432,11.594,9.156,12.991,15.922S602.737,525.923,602.737,525.923Z" transform="translate(-281.282 -263.441)" fill="#6791c9"/>
    <g id="Group_400" data-name="Group 400" transform="translate(217.853 165.452)">
      <g id="Group_399" data-name="Group 399" clip-path="url(#clip-path)">
        <path id="Path_345" data-name="Path 345" d="M491.345,501.735s-14.039,9.429-21.582,14.039,2.724,54.27,5.238,72.708,46.1,1.676,46.1,1.676-2.934-15.506.838-40.44c2.7-17.861-7.194-29.056-12.851-36.809C494.807,493.344,491.345,501.735,491.345,501.735Z" transform="translate(-399.966 -409.908)" fill="#0a884f"/>
        <path id="Path_346" data-name="Path 346" d="M472.388,559.525c16.134,19.7,21.588,23.379,17.6,36.669C486.846,606.67,485.8,610.442,485.17,614s29.963-2.3,29.963-2.3l-.209,11.524s-24.1,11.525-35.831,13.829-19.067-.419-19.067-.419Z" transform="translate(-394.839 -453.45)" fill="#005b31"/>
      </g>
    </g>
    <path id="Path_348" data-name="Path 348" d="M731.461,839.055H540.566a2.5,2.5,0,1,1,0-4.99H731.461a2.5,2.5,0,1,1,0,4.99Z" transform="translate(-234.023 -488.637)" fill="#0a884f"/>
    <path id="Path_349" data-name="Path 349" d="M556.809,432.9l-7.264,21.512s7.962,21.582,14.667,16.763c2.289-1.645-.838-14.667-.838-14.667l4.889-17.461Z" transform="translate(-242.408 -195.458)" fill="#f09959"/>
    <path id="Path_350" data-name="Path 350" d="M439.95,556.371c-10.031,1.114-10.9,14.667-15.505,37.3s-3.225,37.567-1.048,40.44c5.238,6.915,64.117-17.182,71.451-16.972,5.062.145.838-8.381.838-8.381l-56.155,8.591s7.963-26.192,7.963-39.6S443.722,555.952,439.95,556.371Z" transform="translate(-148.738 -285.682)" fill="#f09959"/>
    <path id="Path_351" data-name="Path 351" d="M646.666,742.486c5.867-1.467,14.458-4.819,16.134-3.353s8.591,11.944,10.9,14.877-1.047.628-3.562-1.676a32.019,32.019,0,0,0-4.61-3.562,39.628,39.628,0,0,1-6.076,4.61c-2.933,1.676-3.981-1.677-9.01-2.515s-17.6,3.562-17.6,3.562Z" transform="translate(-303.28 -418.994)" fill="#f09959"/>
    <path id="Path_352" data-name="Path 352" d="M442.509,549.673c-6.146.279-10.9,5.448-12.572,13.41s-6.565,33.246-6.565,33.246-.978.7,9.219,2.514a49.112,49.112,0,0,0,18.579-.279s2.1-14.388,1.536-24.306-2.794-19.277-6.426-22.49S442.509,549.673,442.509,549.673Z" transform="translate(-150.179 -280.66)" fill="#0a884f"/>
    <path id="Path_353" data-name="Path 353" d="M578.283,456.509l4.889-17.461L571.717,432.9l-1.75,5.182c-.381,17.347,4.063,23.149,7.058,25.271.935.662,1.74.15,2.414-.931C578.948,459.277,578.283,456.509,578.283,456.509Z" transform="translate(-257.317 -195.458)" fill="#e38540"/>
    <path id="Path_354" data-name="Path 354" d="M606.653,397.19c0,9.346-1.115,20.8-9.219,20.534-12.572-.419-20.494-10.192-20.494-19.537s6.573-16.922,14.682-16.922S606.653,387.844,606.653,397.19Z" transform="translate(-262.428 -157.721)" fill="#f09959"/>
    <path id="Path_355" data-name="Path 355" d="M907.923,712.694h-47.13l19.386-42.649A3.486,3.486,0,0,1,883.352,668h42.772a1.361,1.361,0,0,1,1.239,1.924Z" transform="translate(-469.876 -367.275)" fill="#4dc86e"/>
    <path id="Path_356" data-name="Path 356" d="M799.442,819.143H712.5a5.485,5.485,0,0,1,5.485-5.485h81.462Z" transform="translate(-361.497 -473.724)" fill="#4dc86e"/>
    <path id="Path_357" data-name="Path 357" d="M939.913,668H902.221a3.486,3.486,0,0,0-3.174,2.044l-19.386,42.649h42.051l19.44-42.768A1.361,1.361,0,0,0,939.913,668Z" transform="translate(-483.665 -367.275)" fill="#5ce978"/>
    <path id="Path_358" data-name="Path 358" d="M598.232,369.107c8.906-.629,14.179,7.508,15.715,14.632,1.109,5.14.559,6.146.559,6.146s-.978,1.4-7.962,1.816a66.439,66.439,0,0,1-7.823.279l-.419-8.1-2.1,7.823s-1.117,1.537-5.448-.559-6.286-9.08-6.286-9.08-.978-4.61,2.375-7.683S598.232,369.107,598.232,369.107Z" transform="translate(-267.837 -148.811)" fill="#014626"/>
    <path id="Path_359" data-name="Path 359" d="M564.631,415.779c-.854,5.653-5.366,9.658-10.078,8.946s-7.839-5.872-6.985-11.525,5.366-9.658,10.078-8.946S565.485,410.126,564.631,415.779Z" transform="translate(-240.861 -174.463)" fill="#d54a41"/>
    <path id="Path_360" data-name="Path 360" d="M561.134,418.037c-.791,5.234-4.5,9.014-8.274,8.443s-6.2-5.277-5.41-10.511,4.5-9.014,8.274-8.443S561.925,412.8,561.134,418.037Z" transform="translate(-240.768 -176.872)" fill="#f39892"/>
    <path id="Path_361" data-name="Path 361" d="M562.206,427.091c-.435,2.876-2,5.023-3.5,4.8s-2.36-2.741-1.926-5.617,2-5.024,3.5-4.8S562.64,424.215,562.206,427.091Z" transform="translate(-247.614 -187.095)" fill="#f2e5de"/>
    <path id="Path_362" data-name="Path 362" d="M576.4,371.428c4.086-15.191,18.19-12.976,21.757-10.861a6.843,6.843,0,0,1,3.422,4.3s-3.876-3.143-10.477-1.991c-6.263,1.093-9.988,4.784-10.512,8.87C580.324,373.825,576.4,371.428,576.4,371.428Z" transform="translate(-262.035 -141.493)" fill="#d54a41"/>
    <g id="Group_401" data-name="Group 401" transform="translate(251.357 226.923)">
      <path id="Path_363" data-name="Path 363" d="M342.645,445.869l-.031,0a.323.323,0,0,1-.291-.352,19.344,19.344,0,0,1,5.406-11.119,33.208,33.208,0,0,1,14.516-8.576c13.3-4.114,24.9-9.344,32.2-31.78a.323.323,0,1,1,.615.2c-3.351,10.311-7.912,17.818-13.944,22.951-5.32,4.526-11.313,6.97-18.675,9.247a32.566,32.566,0,0,0-14.235,8.4,18.7,18.7,0,0,0-5.235,10.739A.323.323,0,0,1,342.645,445.869Z" transform="translate(-342.321 -393.817)" fill="#303c60"/>
    </g>
    <g id="Group_402" data-name="Group 402" transform="translate(257.363 229.018)">
      <path id="Path_364" data-name="Path 364" d="M364.959,436.053a.323.323,0,0,1-.2-.578,38.782,38.782,0,0,1,13.958-6.207c15.777-3.476,26.369-12.963,30.631-27.434a.323.323,0,0,1,.62.182,37.8,37.8,0,0,1-14.723,20.97,45.618,45.618,0,0,1-16.389,6.913,38.108,38.108,0,0,0-13.7,6.086A.323.323,0,0,1,364.959,436.053Z" transform="translate(-364.636 -401.602)" fill="#303c60"/>
    </g>
    <g id="Group_408" data-name="Group 408" transform="translate(375.383 207.829)">
      <path id="Path_365" data-name="Path 365" d="M1000.389,444.049H957.836a.489.489,0,0,1-.46-.722l8.631-23.715a1.143,1.143,0,0,1,.985-.722h42.553a.489.489,0,0,1,.459.722l-8.631,23.715A1.143,1.143,0,0,1,1000.389,444.049Z" transform="translate(-915.81 -393.047)" fill="#5ce978"/>
      <path id="Path_366" data-name="Path 366" d="M1003.551,445.949H962.832a.456.456,0,0,1-.429-.674l7.86-21.594a1.067,1.067,0,0,1,.92-.675H1011.9a.457.457,0,0,1,.429.675l-7.86,21.594A1.067,1.067,0,0,1,1003.551,445.949Z" transform="translate(-919.486 -396.055)" fill="#fff"/>
      <path id="Path_367" data-name="Path 367" d="M1007.43,448.361H969.2a.513.513,0,0,1-.482-.758l6.775-18.614a1.2,1.2,0,0,1,1.034-.758h38.226a.513.513,0,0,1,.482.758l-6.775,18.614A1.2,1.2,0,0,1,1007.43,448.361Z" transform="translate(-924.1 -399.873)" fill="#5ce978"/>
      <ellipse id="Ellipse_1" data-name="Ellipse 1" cx="8.37" cy="5.828" rx="8.37" ry="5.828" transform="matrix(0.768, -0.641, 0.641, 0.768, 57.72, 39.31)" fill="#fff"/>
      <path id="Path_368" data-name="Path 368" d="M1043.895,449.294a9.514,9.514,0,0,1-8.2,6.014c-3.322,0-5.034-2.693-3.825-6.014a9.515,9.515,0,0,1,8.2-6.014C1043.391,443.28,1045.1,445.973,1043.895,449.294Z" transform="translate(-970 -410.872)" fill="#4dc86e"/>
      <path id="Path_369" data-name="Path 369" d="M1052.263,457.537l-2.66,1.269-2.661,1.269.924-2.539.924-2.539,1.736,1.269Z" transform="translate(-981.301 -419.436)" fill="#fff"/>
      <g id="Group_403" data-name="Group 403" transform="translate(14.844 15.907)">
        <path id="Path_370" data-name="Path 370" d="M863.55,390.4H860.2a1.945,1.945,0,0,1-1.634-.787,2.122,2.122,0,0,1-.172-1.966l1.22-3.353a3.628,3.628,0,0,1,3.179-2.311h3.353a1.945,1.945,0,0,1,1.634.787,2.123,2.123,0,0,1,.172,1.966l-1.22,3.353A3.628,3.628,0,0,1,863.55,390.4Zm-.76-7.124a2.363,2.363,0,0,0-1.965,1.461l-1.22,3.353a.87.87,0,0,0,.017.783.683.683,0,0,0,.576.236h3.352a2.329,2.329,0,0,0,1.965-1.461l1.22-3.353a.87.87,0,0,0-.016-.783.684.684,0,0,0-.576-.236Z" transform="translate(-858.231 -381.979)" fill="#5ce978"/>
      </g>
      <g id="Group_404" data-name="Group 404" transform="translate(9.658 30.156)">
        <path id="Path_371" data-name="Path 371" d="M844.284,443.328h-3.353a1.946,1.946,0,0,1-1.634-.787,2.122,2.122,0,0,1-.172-1.966l1.22-3.353a3.628,3.628,0,0,1,3.179-2.311h3.352a1.945,1.945,0,0,1,1.634.787,2.122,2.122,0,0,1,.172,1.966l-1.22,3.353A3.628,3.628,0,0,1,844.284,443.328Zm-.76-7.124a2.363,2.363,0,0,0-1.965,1.461l-1.22,3.353a.87.87,0,0,0,.017.783.683.683,0,0,0,.576.236h3.353a2.328,2.328,0,0,0,1.965-1.461l1.221-3.353a.871.871,0,0,0-.017-.783.683.683,0,0,0-.576-.236Z" transform="translate(-838.965 -434.912)" fill="#5ce978"/>
      </g>
      <g id="Group_405" data-name="Group 405" transform="translate(4.473 44.404)">
        <path id="Path_372" data-name="Path 372" d="M825.017,496.261h-3.352a1.946,1.946,0,0,1-1.634-.787,2.123,2.123,0,0,1-.172-1.966l1.22-3.352a3.628,3.628,0,0,1,3.179-2.311h3.353a1.946,1.946,0,0,1,1.634.787,2.124,2.124,0,0,1,.172,1.966l-1.22,3.352A3.628,3.628,0,0,1,825.017,496.261Zm-.759-7.124a2.329,2.329,0,0,0-1.965,1.461l-1.22,3.352a.87.87,0,0,0,.017.783.683.683,0,0,0,.576.236h3.352a2.328,2.328,0,0,0,1.965-1.461l1.22-3.352a.87.87,0,0,0-.017-.783.682.682,0,0,0-.576-.236Z" transform="translate(-819.699 -487.845)" fill="#5ce978"/>
      </g>
      <path id="Path_373" data-name="Path 373" d="M929.2,399.648H910.766a.426.426,0,0,1-.4-.629,1,1,0,0,1,.857-.629h18.439a.426.426,0,0,1,.4.629A1,1,0,0,1,929.2,399.648Z" transform="translate(-881.459 -378.066)" fill="#5ce978"/>
      <path id="Path_374" data-name="Path 374" d="M925.8,408.989H907.365a.426.426,0,0,1-.4-.629,1,1,0,0,1,.857-.629h18.439a.426.426,0,0,1,.4.629A1,1,0,0,1,925.8,408.989Z" transform="translate(-878.974 -384.893)" fill="#5ce978"/>
      <path id="Path_375" data-name="Path 375" d="M911.355,448.689H892.916a.426.426,0,0,1-.4-.629,1,1,0,0,1,.857-.629h18.439a.426.426,0,0,1,.4.629A1,1,0,0,1,911.355,448.689Z" transform="translate(-868.414 -413.906)" fill="#5ce978"/>
      <path id="Path_376" data-name="Path 376" d="M907.955,458.03H889.516a.426.426,0,0,1-.4-.628,1,1,0,0,1,.857-.629h18.439a.426.426,0,0,1,.4.629A1,1,0,0,1,907.955,458.03Z" transform="translate(-865.929 -420.733)" fill="#5ce978"/>
      <path id="Path_377" data-name="Path 377" d="M891.522,503.179H873.083a.426.426,0,0,1-.4-.629,1,1,0,0,1,.857-.628H891.98a.426.426,0,0,1,.4.628A1,1,0,0,1,891.522,503.179Z" transform="translate(-853.919 -453.729)" fill="#5ce978"/>
      <path id="Path_378" data-name="Path 378" d="M888.123,512.52H869.684a.426.426,0,0,1-.4-.628,1,1,0,0,1,.857-.629H888.58a.426.426,0,0,1,.4.629A1,1,0,0,1,888.123,512.52Z" transform="translate(-851.435 -460.556)" fill="#5ce978"/>
      <g id="Group_406" data-name="Group 406" transform="translate(17.471 14.86)">
        <path id="Path_379" data-name="Path 379" d="M869.9,385.665a.654.654,0,0,1-.17-.023.647.647,0,0,1-.43-.382l-1.265-3.143a.646.646,0,1,1,1.2-.483l.947,2.352,7.48-5.766a.646.646,0,0,1,.789,1.023l-8.155,6.286A.646.646,0,0,1,869.9,385.665Z" transform="translate(-867.988 -378.087)" fill="#005b31"/>
      </g>
      <g id="Group_407" data-name="Group 407" transform="translate(12.285 29.108)">
        <path id="Path_380" data-name="Path 380" d="M850.634,438.6a.654.654,0,0,1-.17-.023.645.645,0,0,1-.429-.382l-1.266-3.143a.646.646,0,0,1,1.2-.483l.947,2.352,7.48-5.766a.646.646,0,1,1,.789,1.023l-8.155,6.286A.647.647,0,0,1,850.634,438.6Z" transform="translate(-848.722 -431.02)" fill="#005b31"/>
      </g>
      <path id="Path_381" data-name="Path 381" d="M1116.481,327.912h-70.823l1.831-5.029h70.823Z" transform="translate(-980.362 -322.883)" fill="#5ce978"/>
      <path id="Path_382" data-name="Path 382" d="M1106.281,355.935h-70.823l1.83-5.029h70.823Z" transform="translate(-972.908 -343.363)" fill="#5ce978"/>
      <path id="Path_383" data-name="Path 383" d="M863.382,586.906H811.374a.838.838,0,0,1-.786-1.235,1.962,1.962,0,0,1,1.685-1.236h52.008a.838.838,0,0,1,.786,1.236A1.962,1.962,0,0,1,863.382,586.906Z" transform="translate(-808.51 -514.031)" fill="#5ce978"/>
      <path id="Path_384" data-name="Path 384" d="M855.957,607.306H803.949a.838.838,0,0,1-.786-1.235,1.962,1.962,0,0,1,1.685-1.236h52.008a.838.838,0,0,1,.786,1.236A1.961,1.961,0,0,1,855.957,607.306Z" transform="translate(-803.084 -528.94)" fill="#5ce978"/>
    </g>
  </g>
</svg>
