<svg xmlns="http://www.w3.org/2000/svg" width="307.743" height="225.368" viewBox="0 0 307.743 225.368">
  <path id="Union_9" data-name="Union 9" d="M-1761,21.368V-18.458h24.223l54.5-143.78h-26.915V-204h45.081l20.186,68.763-16.821,47.252h30.951l10.766,43.2H-1674.2l-8.072,26.326h21.53V21.368Zm165.3-12.543a12.274,12.274,0,0,1,12.453-12.4,12.143,12.143,0,0,1,11.389,7.865h-4.033a8.443,8.443,0,0,0-7.389-4.5c-5.064,0-8.614,4.176-8.614,9.031,0,4.985,3.614,9.094,8.647,9.094a8.566,8.566,0,0,0,7.355-4.368h4a11.835,11.835,0,0,1-11.324,7.735A12.338,12.338,0,0,1-1595.7,8.824Zm131.148,12.008V12.319l-7.485-15.438h4.13l5.258,11.846,5.26-11.846h4.13l-7.486,15.438v8.513Zm-14.938,0,.1-20.2-7.9,20.2h-2.484l-7.9-20.2.1,20.2h-3.55V-3.119h5.227l7.42,18.546,7.324-18.546h5.2V20.832Zm-40.2,0V-3.119h13.356V.246h-9.549v6.8h9.42v3.333h-9.42v7.088h9.549v3.367Zm-24.584,0V-3.119h7.388c3.194,0,7.162.485,9.809,3.883a12.226,12.226,0,0,1,2.612,8.06c0,6.991-3.773,12.008-12.163,12.008Zm3.806-3.367h4.034c5.613,0,8.2-3.592,8.2-8.576a9.633,9.633,0,0,0-1.937-6.117A7.689,7.689,0,0,0-1536.4.246h-4.066Zm-11.711,3.367-2.258-5.664h-10.2l-2.193,5.664h-4.131l9.809-23.951h3.451l9.647,23.951Zm-11.421-8.74h8.131l-4.1-10.778Zm-37.457,8.74-2.259-5.664h-10.2l-2.193,5.664h-4.13l9.808-23.951h3.453l9.646,23.951Zm-11.42-8.74h8.129l-4.1-10.778Zm47.78-33.689c-2.354-2.1-2.645-4.467-2.613-7.379V-43.93h3.807v14.954a7.116,7.116,0,0,0,.871,4.176,4.246,4.246,0,0,0,3.678,1.909,4.076,4.076,0,0,0,3.614-1.844,6.958,6.958,0,0,0,.9-4.241V-43.93h3.775v14.954c.032,3.171-.486,5.6-2.582,7.347a8.208,8.208,0,0,1-5.679,2.1A8.488,8.488,0,0,1-1564.693-21.6Zm-31-10.39a12.274,12.274,0,0,1,12.453-12.4,12.145,12.145,0,0,1,11.389,7.865h-4.033a8.442,8.442,0,0,0-7.389-4.5c-5.064,0-8.614,4.174-8.614,9.029,0,4.985,3.614,9.1,8.647,9.1a8.567,8.567,0,0,0,7.355-4.37h4a11.833,11.833,0,0,1-11.324,7.735A12.337,12.337,0,0,1-1595.7-31.987Zm116.468,12.008-12.485-18.255.064,18.255h-3.678V-43.93h3.582l12.388,18.222-.063-18.222h3.678v23.951Zm-34.649,0V-43.93h13.355v3.367h-9.548v6.8h9.419v3.335h-9.419v7.088h9.548v3.365Zm-9.357,0,.1-20.2-7.9,20.2h-2.484l-7.9-20.2.1,20.2h-3.548V-43.93h5.227l7.421,18.546,7.323-18.546h5.194v23.951Zm-77.817,0-2.259-5.664h-10.2l-2.193,5.664h-4.13l9.808-23.951h3.453l9.646,23.951Zm-11.42-8.738h8.129l-4.1-10.778Z" transform="translate(1761 204)" fill="#fff"/>
</svg>
