<svg xmlns="http://www.w3.org/2000/svg" width="27.499" height="31.906" viewBox="0 0 27.499 31.906">
  <path id="Union_8" data-name="Union 8" d="M0,31.809S6.446,21.026,6.7,20.551a8.978,8.978,0,0,1,1.635-2.47A3.417,3.417,0,0,1,9.7,17.211l2.4-.83c.734-.254,1.464-.508,2.042-.705a2.308,2.308,0,0,1-1.662,2.278c-1.542.528-2.168.749-2.168.749a.425.425,0,0,0-.287.512.41.41,0,0,0,.539.253c4.167-1.44,4.717-1.564,7.478-5.99l.006,0c.05-.011.345-.021-.006,1.166a13.267,13.267,0,0,1-3.176,5.91c-2.174,2.3-3.944,2.294-5.323,3.456A13.061,13.061,0,0,0,6.985,27.9H27.5a5.446,5.446,0,0,1-5.259,3.912c-2.636.033-10.514.1-16.145.1C2.6,31.906-.023,31.882,0,31.809ZM7.337,17.265a13.267,13.267,0,0,1,3.176-5.91c2.174-2.3,3.944-2.294,5.323-3.456a13.062,13.062,0,0,0,2.557-3.89H3.623A5.446,5.446,0,0,1,8.882.1c4.271-.053,16.556-.189,16.5,0,0,0-6.446,10.784-6.7,11.258a8.977,8.977,0,0,1-1.635,2.47,3.416,3.416,0,0,1-1.364.869l-2.4.83c-.734.254-1.464.508-2.042.705A2.307,2.307,0,0,1,12.9,13.953c1.542-.528,2.168-.749,2.168-.749a.425.425,0,0,0,.287-.512.41.41,0,0,0-.539-.253C10.648,13.879,10.1,14,7.337,18.43l-.006,0-.02,0C7.231,18.434,7.019,18.341,7.337,17.265Z" fill="#017d43"/>
</svg>
