<svg xmlns="http://www.w3.org/2000/svg" width="218.756" height="31.931" viewBox="0 0 218.756 31.931">
  <g id="Group_398" data-name="Group 398" transform="translate(-323 -562)">
    <path id="Union_8" data-name="Union 8" d="M0,31.809S6.446,21.026,6.7,20.551a8.978,8.978,0,0,1,1.635-2.47A3.417,3.417,0,0,1,9.7,17.211l2.4-.83c.734-.254,1.464-.508,2.042-.705a2.308,2.308,0,0,1-1.662,2.278c-1.542.528-2.168.749-2.168.749a.425.425,0,0,0-.287.512.41.41,0,0,0,.539.253c4.167-1.44,4.717-1.564,7.478-5.99l.006,0c.05-.011.345-.021-.006,1.166a13.267,13.267,0,0,1-3.176,5.91c-2.174,2.3-3.944,2.294-5.323,3.456A13.061,13.061,0,0,0,6.985,27.9H27.5a5.446,5.446,0,0,1-5.259,3.912c-2.636.033-10.514.1-16.145.1C2.6,31.906-.023,31.882,0,31.809ZM7.337,17.265a13.267,13.267,0,0,1,3.176-5.91c2.174-2.3,3.944-2.294,5.323-3.456a13.062,13.062,0,0,0,2.557-3.89H3.623A5.446,5.446,0,0,1,8.882.1c4.271-.053,16.556-.189,16.5,0,0,0-6.446,10.784-6.7,11.258a8.977,8.977,0,0,1-1.635,2.47,3.416,3.416,0,0,1-1.364.869l-2.4.83c-.734.254-1.464.508-2.042.705A2.307,2.307,0,0,1,12.9,13.953c1.542-.528,2.168-.749,2.168-.749a.425.425,0,0,0,.287-.512.41.41,0,0,0-.539-.253C10.648,13.879,10.1,14,7.337,18.43l-.006,0-.02,0C7.231,18.434,7.019,18.341,7.337,17.265Z" transform="translate(323 562)" fill="#017d43"/>
    <path id="Path_339" data-name="Path 339" d="M25.594-251.342H43.338v-7.03H33.6v-5.378h9.444v-7.03H33.6v-4.87h9.74v-7.03H25.594ZM58.626-282.68h-6.9v31.338h7.665l-.169-18.887L71.2-251.342h6.945V-282.68H70.483l.169,19.1ZM91.4-251.342h8V-275.65h6.141v-7.03H85.221v7.03H91.4Zm21.132,0h8V-275.65H123.5a6.564,6.564,0,0,1,3.261.847,4.267,4.267,0,0,1,1.863,3.642,4.671,4.671,0,0,1-1.779,3.854c-1.059.678-2.8.847-4.828.847h-1.313l8.173,15.118h8.258l-6.479-11.519a8.948,8.948,0,0,0,4.065-3.346,10.367,10.367,0,0,0,1.567-5.675,10.407,10.407,0,0,0-3.811-8.554c-1.736-1.355-4.785-2.244-9.7-2.244H112.535Zm31.338-31.338v18.93c0,4.616.551,6.818,3.134,9.655,2.583,2.795,6.733,3.346,9.02,3.346a11.716,11.716,0,0,0,8.766-3.388c1.99-2.033,3.134-4.362,3.134-9.613v-18.93h-8v18.93a10.414,10.414,0,0,1-.508,3.938,3.355,3.355,0,0,1-3.473,2.033,3.527,3.527,0,0,1-3.515-2.2,10.177,10.177,0,0,1-.551-3.769v-18.93Zm40.782,31.338L184.4-274.8l6.776,23.461h5.294l6.776-23.461-.254,23.461h7.369V-282.68H199.6l-5.717,20.2L188-282.68H177.286v31.338Z" transform="translate(331.396 844.68)" fill="#017d43"/>
  </g>
</svg>
